<?xml version="1.0" encoding="UTF-8" standalone="no"?>
<!-- Created with Inkscape (http://www.inkscape.org/) -->

<svg
   xmlns:dc="http://purl.org/dc/elements/1.1/"
   xmlns:cc="http://creativecommons.org/ns#"
   xmlns:rdf="http://www.w3.org/1999/02/22-rdf-syntax-ns#"
   xmlns:svg="http://www.w3.org/2000/svg"
   xmlns="http://www.w3.org/2000/svg"
   xmlns:sodipodi="http://sodipodi.sourceforge.net/DTD/sodipodi-0.dtd"
   xmlns:inkscape="http://www.inkscape.org/namespaces/inkscape"
   width="600"
   height="600"
   viewBox="0 0 599.99998 599.99998"
   id="svg2"
   version="1.1"
   inkscape:version="0.91 r13725"
   sodipodi:docname="codes.svg">
  <defs
     id="defs4">
    <filter
       style="color-interpolation-filters:sRGB;"
       inkscape:label="Invert"
       id="filter4324">
      <feColorMatrix
         values="1 0 0 0 0 0 1 0 0 0 0 0 1 0 0 -0.21 -0.72 -0.07 2 0 "
         result="color2"
         id="feColorMatrix4326" />
    </filter>
  </defs>
  <sodipodi:namedview
     id="base"
     pagecolor="#ffffff"
     bordercolor="#666666"
     borderopacity="1.0"
     inkscape:pageopacity="0.0"
     inkscape:pageshadow="2"
     inkscape:zoom="1.979899"
     inkscape:cx="259.69386"
     inkscape:cy="202.14041"
     inkscape:document-units="px"
     inkscape:current-layer="layer5"
     showgrid="false"
     units="px"
     inkscape:window-width="1920"
     inkscape:window-height="1176"
     inkscape:window-x="0"
     inkscape:window-y="24"
     inkscape:window-maximized="1">
    <inkscape:grid
       type="xygrid"
       id="grid4136"
       spacingx="9.9999996"
       spacingy="9.9999996"
       empspacing="10" />
  </sodipodi:namedview>
  <metadata
     id="metadata7">
    <rdf:RDF>
      <cc:Work
         rdf:about="">
        <dc:format>image/svg+xml</dc:format>
        <dc:type
           rdf:resource="http://purl.org/dc/dcmitype/StillImage" />
        <dc:title />
      </cc:Work>
    </rdf:RDF>
  </metadata>
  <g
     inkscape:groupmode="layer"
     id="layer4"
     inkscape:label="BG"
     style="display:none">
    <rect
       style="opacity:1;fill:#f7f3ca;fill-opacity:1;stroke:none;stroke-width:6;stroke-miterlimit:4;stroke-dasharray:none;stroke-dashoffset:0;stroke-opacity:1"
       id="rect4295"
       width="600"
       height="600"
       x="0"
       y="2.1718752e-06" />
  </g>
  <g
     inkscape:groupmode="layer"
     id="layer5"
     inkscape:label="CPL Library"
     style="display:inline">
    <path
       style="fill:none;fill-rule:evenodd;stroke:#64ad39;stroke-width:5;stroke-linecap:butt;stroke-linejoin:miter;stroke-miterlimit:4;stroke-dasharray:none;stroke-opacity:1"
       d="m 369.28571,347.85714 62.14286,63.57143"
       id="path4540"
       inkscape:connector-curvature="0"
       sodipodi:nodetypes="cc" />
    <path
       sodipodi:nodetypes="cc"
       inkscape:connector-curvature="0"
       id="path4542"
       d="m 231.42857,347.85714 -62.14286,63.57143"
       style="fill:none;fill-rule:evenodd;stroke:#93d447;stroke-width:5;stroke-linecap:butt;stroke-linejoin:miter;stroke-miterlimit:4;stroke-dasharray:none;stroke-opacity:1" />
    <path
       style="fill:#a0a0a0;fill-rule:evenodd;stroke:#7fc199;stroke-width:5;stroke-linecap:butt;stroke-linejoin:miter;stroke-miterlimit:4;stroke-dasharray:none;stroke-opacity:1;fill-opacity:1"
       d="m 431.42857,187.85714 -62.14286,63.57143"
       id="path4544"
       inkscape:connector-curvature="0"
       sodipodi:nodetypes="cc" />
    <path
       sodipodi:nodetypes="cc"
       inkscape:connector-curvature="0"
       id="path4546"
       d="m 169.28571,187.85714 62.14286,63.57143"
       style="fill:none;fill-rule:evenodd;stroke:#3c8c5e;stroke-width:5;stroke-linecap:butt;stroke-linejoin:miter;stroke-miterlimit:4;stroke-dasharray:none;stroke-opacity:1" />
    <path
       style="opacity:1;fill:#0acb5f;fill-opacity:1;stroke:none;stroke-width:6;stroke-miterlimit:4;stroke-dasharray:none;stroke-dashoffset:0;stroke-opacity:1"
       d="M 300,175 A 125,125 0 0 0 175,300 125,125 0 0 0 300,425 125,125 0 0 0 425,300 125,125 0 0 0 300,175 Z m -81.05469,107.09961 c 5.4,0 8.19824,3.20127 8.19824,8.80127 l 0,3.39843 -5.20019,0 0,-3.75 c 0,-2.5 -1.09912,-3.4497 -2.84912,-3.4497 -1.75,0 -2.84913,0.9497 -2.84913,3.4497 l 0,18.90138 c 0,2.5 1.09913,3.39843 2.84913,3.39843 1.75,0 2.84912,-0.89843 2.84912,-3.39843 l 0,-5 5.20019,0 0,4.64843 c 0,5.6 -2.79824,8.80127 -8.19824,8.80127 -5.4,0 -8.20069,-3.20127 -8.20069,-8.80127 l 0,-18.19824 c 0,-5.6 2.80069,-8.80127 8.20069,-8.80127 z m 11.58448,0.40039 8.10059,0 c 5.5,0 8.20067,3.0499 8.20067,8.6499 l 0,4.55079 c 0,5.6 -2.70067,8.6499 -8.20067,8.6499 l -2.6001,0 0,13.14941 -5.50049,0 0,-35 z m 18.84765,0 5.50048,0 0,30 9.0503,0 0,5 -14.55078,0 0,-35 z m 24.70703,0 5.50049,0 0,30 9.05029,0 0,5 -14.55078,0 0,-35 z m 16.99219,0 5.50049,0 0,35 -5.50049,0 0,-35 z m 9.47265,0 8.30079,0 c 5.7,0 8.14941,2.64931 8.14941,8.04931 l 0,1.25 c 0,3.6 -1.0998,5.84951 -3.5498,6.99952 l 0,0.1001 c 2.95,1.14999 4.09912,3.75117 4.09912,7.45117 l 0,2.84912 c 0,5.4 -2.8496,8.30078 -8.34961,8.30078 l -8.64991,0 0,-35 z m 20.3125,0 8.30079,0 c 5.7,0 8.14941,2.64931 8.14941,8.04931 l 0,2.75147 c 0,3.59999 -1.15107,5.89835 -3.60107,7.04834 l 0,0.1001 c 2.75,1.14999 3.65234,3.74991 3.65234,7.3999 l 0,5.40039 c 1e-5,1.7 0.0481,2.95049 0.59815,4.25049 l -5.59815,0 c -0.29999,-0.9 -0.50049,-1.44931 -0.50049,-4.29931 l 0,-5.50049 c 0,-3.25 -1.10107,-4.45069 -3.60107,-4.45069 l -1.89942,0 0,14.25049 -5.50049,0 0,-35 z m 24.26759,0 8.04931,0 5.60059,35 -5.54933,0 -0.94969,-6.3501 -6.75049,0 -0.94971,6.3501 -5.05127,0 5.60059,-35 z m 16.1621,0 8.30079,0 c 5.7,0 8.14941,2.64931 8.14941,8.04931 l 0,2.75147 c 0,3.59999 -1.15108,5.89835 -3.60108,7.04834 l 0,0.1001 c 2.75,1.14999 3.65235,3.74991 3.65235,7.3999 l 0,5.40039 c 0,1.7 0.0481,2.95049 0.59814,4.25049 l -5.59814,0 c -0.3,-0.9 -0.5005,-1.44931 -0.5005,-4.29931 l 0,-5.50049 c 0,-3.25 -1.10107,-4.45069 -3.60107,-4.45069 l -1.89941,0 0,14.25049 -5.50049,0 0,-35 z m 17.8296,0 5.7495,0 4.1504,15.94971 0.1001,0 4.15039,-15.94971 5.24902,0 -6.95069,23.40088 0,11.59912 -5.49805,0 0,-11.59912 L 379.1211,282.5 Z m -143.09082,5 0,11.85059 2.6001,0 c 1.75,0 2.70018,-0.80079 2.70018,-3.30079 l 0,-5.24902 c 0,-2.5 -0.95018,-3.30078 -2.70018,-3.30078 l -2.6001,0 z m 70.01952,0 0,9.25049 2.15089,0 c 2.05,0 3.29834,-0.90118 3.29834,-3.70118 l 0,-1.94824 c 0,-2.5 -0.8503,-3.60107 -2.80031,-3.60107 l -2.64892,0 z m 20.3125,0 0,10.74951 2.15089,0 c 2.05,0 3.29834,-0.89872 3.29834,-3.69873 l 0,-3.44971 c 0,-2.5 -0.8503,-3.60107 -2.80031,-3.60107 l -2.64892,0 z m 40.42969,0 0,10.74951 2.15088,0 c 2.05001,0 3.29834,-0.89872 3.29834,-3.69873 l 0,-3.44971 c 0,-2.5 -0.8503,-3.60107 -2.8003,-3.60107 l -2.64892,0 z m -17.96387,1.20117 -2.59765,17.69776 5.29785,0 -2.6001,-17.69776 -0.1001,0 z m -42.77832,13.04932 0,10.74951 3.14942,0 c 1.84999,0 2.85156,-0.84971 2.85156,-3.44971 l 0,-3.04932 c 1e-5,-3.24999 -1.05224,-4.25048 -3.55224,-4.25048 l -2.44874,0 z"
       id="path4298"
       inkscape:connector-curvature="0" />
    <path
       style="opacity:1;fill:#93d447;fill-opacity:1;stroke:none;stroke-width:3;stroke-linejoin:round;stroke-miterlimit:4;stroke-dasharray:none;stroke-dashoffset:0;stroke-opacity:1"
       d="M 130 360 A 90 90 0 0 0 40 450 A 90 90 0 0 0 130 540 A 90 90 0 0 0 220 450 A 90 90 0 0 0 130 360 z M 110.24805 426.24219 C 112.94805 426.24219 114.42188 427.84258 114.42188 430.64258 L 114.42188 439.74219 C 114.42188 442.54219 112.94805 444.14258 110.24805 444.14258 C 107.54805 444.14258 106.07227 442.54219 106.07227 439.74219 L 106.07227 430.64258 C 106.07227 427.84258 107.54805 426.24219 110.24805 426.24219 z M 143.96094 426.24219 C 146.66094 426.24219 148.0625 427.84258 148.0625 430.64258 L 148.0625 432.3418 L 145.46094 432.3418 L 145.46094 430.4668 C 145.46094 429.2168 144.91211 428.74219 144.03711 428.74219 C 143.16211 428.74219 142.61133 429.2168 142.61133 430.4668 L 142.61133 439.91797 C 142.61133 441.16797 143.16211 441.61719 144.03711 441.61719 C 144.91211 441.61719 145.46094 441.16797 145.46094 439.91797 L 145.46094 437.41797 L 148.0625 437.41797 L 148.0625 439.74219 C 148.0625 442.54219 146.66094 444.14258 143.96094 444.14258 C 141.26094 444.14258 139.86133 442.54219 139.86133 439.74219 L 139.86133 430.64258 C 139.86133 427.84258 141.26094 426.24219 143.96094 426.24219 z M 95.876953 426.44336 L 98.751953 426.44336 L 100.82617 434.41797 L 100.87695 434.41797 L 102.95117 426.44336 L 105.57617 426.44336 L 102.10156 438.14258 L 102.10156 443.94336 L 99.351562 443.94336 L 99.351562 438.14258 L 95.876953 426.44336 z M 116.08398 426.44336 L 118.83398 426.44336 L 118.83398 439.94336 C 118.83398 441.19336 119.38477 441.64258 120.25977 441.64258 C 121.13477 441.64258 121.68555 441.19336 121.68555 439.94336 L 121.68555 426.44336 L 124.28516 426.44336 L 124.28516 439.76758 C 124.28516 442.56758 122.88555 444.16797 120.18555 444.16797 C 117.48555 444.16797 116.08398 442.56758 116.08398 439.76758 L 116.08398 426.44336 z M 126.16992 426.44336 L 130.32031 426.44336 C 133.17031 426.44336 134.39648 427.7668 134.39648 430.4668 L 134.39648 431.8418 C 134.39648 433.6418 133.8207 434.79219 132.5957 435.36719 L 132.5957 435.41797 C 133.9707 435.99297 134.41992 437.29219 134.41992 439.11719 L 134.41992 441.81836 C 134.41992 442.66836 134.4457 443.29336 134.7207 443.94336 L 131.91992 443.94336 C 131.76992 443.49336 131.66992 443.21797 131.66992 441.79297 L 131.66992 439.04297 C 131.66992 437.41797 131.12109 436.81836 129.87109 436.81836 L 128.91992 436.81836 L 128.91992 443.94336 L 126.16992 443.94336 L 126.16992 426.44336 z M 149.75391 426.44336 L 157.0293 426.44336 L 157.0293 428.94336 L 152.50391 428.94336 L 152.50391 434.2168 L 156.05469 434.2168 L 156.05469 436.7168 L 152.50391 436.7168 L 152.50391 443.94336 L 149.75391 443.94336 L 149.75391 426.44336 z M 158.34766 426.44336 L 162.69922 426.44336 C 165.44922 426.44336 166.79883 427.96758 166.79883 430.76758 L 166.79883 439.61719 C 166.79883 442.41719 165.44922 443.94336 162.69922 443.94336 L 158.34766 443.94336 L 158.34766 426.44336 z M 110.24805 428.74219 C 109.37305 428.74219 108.82227 429.2168 108.82227 430.4668 L 108.82227 439.91797 C 108.82227 441.16797 109.37305 441.64258 110.24805 441.64258 C 111.12305 441.64258 111.67188 441.16797 111.67188 439.91797 L 111.67188 430.4668 C 111.67188 429.2168 111.12305 428.74219 110.24805 428.74219 z M 128.91992 428.94336 L 128.91992 434.31836 L 129.99609 434.31836 C 131.02109 434.31836 131.64648 433.8668 131.64648 432.4668 L 131.64648 430.74219 C 131.64648 429.49219 131.22109 428.94336 130.24609 428.94336 L 128.91992 428.94336 z M 161.09766 428.94336 L 161.09766 441.44336 L 162.64844 441.44336 C 163.52344 441.44336 164.04883 440.99219 164.04883 439.74219 L 164.04883 430.64258 C 164.04883 429.39258 163.52344 428.94336 162.64844 428.94336 L 161.09766 428.94336 z M 119.64648 457.49219 C 122.34648 457.49219 123.82227 459.09258 123.82227 461.89258 L 123.82227 470.99219 C 123.82227 473.79219 122.34648 475.39258 119.64648 475.39258 C 116.94648 475.39258 115.47266 473.79219 115.47266 470.99219 L 115.47266 461.89258 C 115.47266 459.09258 116.94648 457.49219 119.64648 457.49219 z M 129.48438 457.49219 C 132.18438 457.49219 133.58398 459.09258 133.58398 461.89258 L 133.58398 463.5918 L 130.98438 463.5918 L 130.98438 461.7168 C 130.98438 460.4668 130.43359 459.99219 129.55859 459.99219 C 128.68359 459.99219 128.13477 460.4668 128.13477 461.7168 L 128.13477 471.16797 C 128.13477 472.41797 128.68359 472.86719 129.55859 472.86719 C 130.43359 472.86719 130.98438 472.41797 130.98438 471.16797 L 130.98438 467.94336 L 129.73438 467.94336 L 129.73438 465.44336 L 133.58398 465.44336 L 133.58398 470.99219 C 133.58398 473.79219 132.18437 475.39258 129.48438 475.39258 C 126.78437 475.39258 125.38477 473.79219 125.38477 470.99219 L 125.38477 461.89258 C 125.38477 459.09258 126.78438 457.49219 129.48438 457.49219 z M 96.214844 457.69336 L 100.26562 457.69336 C 103.01562 457.69336 104.36523 459.21758 104.36523 462.01758 L 104.36523 464.29297 C 104.36523 467.09297 103.01562 468.61719 100.26562 468.61719 L 98.964844 468.61719 L 98.964844 475.19336 L 96.214844 475.19336 L 96.214844 457.69336 z M 105.63867 457.69336 L 109.78906 457.69336 C 112.63906 457.69336 113.86328 459.0168 113.86328 461.7168 L 113.86328 463.0918 C 113.86328 464.8918 113.28945 466.04219 112.06445 466.61719 L 112.06445 466.66797 C 113.43945 467.24297 113.88867 468.54219 113.88867 470.36719 L 113.88867 473.06836 C 113.88867 473.91836 113.91445 474.54336 114.18945 475.19336 L 111.38867 475.19336 C 111.23867 474.74336 111.13867 474.46797 111.13867 473.04297 L 111.13867 470.29297 C 111.13867 468.66797 110.58789 468.06836 109.33789 468.06836 L 108.38867 468.06836 L 108.38867 475.19336 L 105.63867 475.19336 L 105.63867 457.69336 z M 135.375 457.69336 L 139.52539 457.69336 C 142.37539 457.69336 143.59961 459.0168 143.59961 461.7168 L 143.59961 463.0918 C 143.59961 464.8918 143.02578 466.04219 141.80078 466.61719 L 141.80078 466.66797 C 143.17578 467.24297 143.625 468.54219 143.625 470.36719 L 143.625 473.06836 C 143.625 473.91836 143.65078 474.54336 143.92578 475.19336 L 141.125 475.19336 C 140.975 474.74336 140.875 474.46797 140.875 473.04297 L 140.875 470.29297 C 140.875 468.66797 140.32422 468.06836 139.07422 468.06836 L 138.125 468.06836 L 138.125 475.19336 L 135.375 475.19336 L 135.375 457.69336 z M 147.50781 457.69336 L 151.5332 457.69336 L 154.33398 475.19336 L 151.55859 475.19336 L 151.08398 472.01758 L 147.70898 472.01758 L 147.23438 475.19336 L 144.70898 475.19336 L 147.50781 457.69336 z M 155.56445 457.69336 L 159.39062 457.69336 L 161.39062 470.11719 L 161.43945 470.11719 L 163.28906 457.69336 L 167.11523 457.69336 L 167.11523 475.19336 L 164.51562 475.19336 L 164.51562 462.64258 L 164.46484 462.64258 L 162.61523 475.19336 L 160.01562 475.19336 L 158.01562 462.81836 L 157.96484 462.81836 L 157.96484 475.19336 L 155.56445 475.19336 L 155.56445 457.69336 z M 119.64648 459.99219 C 118.77148 459.99219 118.22266 460.4668 118.22266 461.7168 L 118.22266 471.16797 C 118.22266 472.41797 118.77148 472.89258 119.64648 472.89258 C 120.52148 472.89258 121.07227 472.41797 121.07227 471.16797 L 121.07227 461.7168 C 121.07227 460.4668 120.52148 459.99219 119.64648 459.99219 z M 98.964844 460.19336 L 98.964844 466.11719 L 100.26562 466.11719 C 101.14062 466.11719 101.61523 465.7168 101.61523 464.4668 L 101.61523 461.8418 C 101.61523 460.5918 101.14062 460.19336 100.26562 460.19336 L 98.964844 460.19336 z M 108.38867 460.19336 L 108.38867 465.56836 L 109.46289 465.56836 C 110.48789 465.56836 111.11328 465.1168 111.11328 463.7168 L 111.11328 461.99219 C 111.11328 460.74219 110.68789 460.19336 109.71289 460.19336 L 108.38867 460.19336 z M 138.125 460.19336 L 138.125 465.56836 L 139.19922 465.56836 C 140.22422 465.56836 140.84961 465.1168 140.84961 463.7168 L 140.84961 461.99219 C 140.84961 460.74219 140.42422 460.19336 139.44922 460.19336 L 138.125 460.19336 z M 149.35938 460.79297 L 148.05859 469.64258 L 150.70898 469.64258 L 149.4082 460.79297 L 149.35938 460.79297 z "
       id="path4149" />
    <path
       style="opacity:1;fill:#3c8c5e;fill-opacity:1;stroke:none;stroke-width:3;stroke-linejoin:round;stroke-miterlimit:4;stroke-dasharray:none;stroke-dashoffset:0;stroke-opacity:1"
       d="M 130 60 A 90 90 0 0 0 40 150 A 90 90 0 0 0 130 240 A 90 90 0 0 0 220 150 A 90 90 0 0 0 130 60 z M 82.587891 112.24219 C 85.287891 112.24219 86.763672 113.84258 86.763672 116.64258 L 86.763672 125.74219 C 86.763672 128.54219 85.287891 130.14258 82.587891 130.14258 C 79.887891 130.14258 78.414062 128.54219 78.414062 125.74219 L 78.414062 116.64258 C 78.414062 113.84258 79.887891 112.24219 82.587891 112.24219 z M 128.28516 112.24219 C 130.96016 112.24219 132.33594 113.84258 132.33594 116.64258 L 132.33594 117.19336 L 129.73633 117.19336 L 129.73633 116.4668 C 129.73633 115.2168 129.23633 114.74219 128.36133 114.74219 C 127.48633 114.74219 126.98633 115.2168 126.98633 116.4668 C 126.98633 117.7418 127.53594 118.69258 129.33594 120.26758 C 131.63594 122.29258 132.36133 123.74219 132.36133 125.74219 C 132.36133 128.54219 130.96172 130.14258 128.26172 130.14258 C 125.56172 130.14258 124.16016 128.54219 124.16016 125.74219 L 124.16016 124.66797 L 126.76172 124.66797 L 126.76172 125.91797 C 126.76172 127.16797 127.31055 127.61719 128.18555 127.61719 C 129.06055 127.61719 129.61133 127.16797 129.61133 125.91797 C 129.61133 124.64297 129.06172 123.69219 127.26172 122.11719 C 124.96172 120.09219 124.23633 118.64258 124.23633 116.64258 C 124.23633 113.84258 125.61016 112.24219 128.28516 112.24219 z M 137.86133 112.24219 C 140.56133 112.24219 142.03711 113.84258 142.03711 116.64258 L 142.03711 125.74219 C 142.03711 128.54219 140.56133 130.14258 137.86133 130.14258 C 135.16133 130.14258 133.6875 128.54219 133.6875 125.74219 L 133.6875 116.64258 C 133.6875 113.84258 135.16133 112.24219 137.86133 112.24219 z M 167.71875 112.24219 C 170.41875 112.24219 171.81836 113.84258 171.81836 116.64258 L 171.81836 118.3418 L 169.21875 118.3418 L 169.21875 116.4668 C 169.21875 115.2168 168.66797 114.74219 167.79297 114.74219 C 166.91797 114.74219 166.36914 115.2168 166.36914 116.4668 L 166.36914 125.91797 C 166.36914 127.16797 166.91797 127.61719 167.79297 127.61719 C 168.66797 127.61719 169.21875 127.16797 169.21875 125.91797 L 169.21875 123.41797 L 171.81836 123.41797 L 171.81836 125.74219 C 171.81836 128.54219 170.41875 130.14258 167.71875 130.14258 C 165.01875 130.14258 163.61914 128.54219 163.61914 125.74219 L 163.61914 116.64258 C 163.61914 113.84258 165.01875 112.24219 167.71875 112.24219 z M 88.550781 112.44336 L 92.601562 112.44336 C 95.351562 112.44336 96.701172 113.96758 96.701172 116.76758 L 96.701172 119.04297 C 96.701172 121.84297 95.351562 123.36719 92.601562 123.36719 L 91.300781 123.36719 L 91.300781 129.94336 L 88.550781 129.94336 L 88.550781 112.44336 z M 97.974609 112.44336 L 105.47461 112.44336 L 105.47461 114.94336 L 100.72461 114.94336 L 100.72461 119.81836 L 104.5 119.81836 L 104.5 122.31836 L 100.72461 122.31836 L 100.72461 127.44336 L 105.47461 127.44336 L 105.47461 129.94336 L 97.974609 129.94336 L 97.974609 112.44336 z M 107.12891 112.44336 L 110.58008 112.44336 L 113.35352 122.91797 L 113.4043 122.91797 L 113.4043 112.44336 L 115.85352 112.44336 L 115.85352 129.94336 L 113.0293 129.94336 L 109.6543 117.26758 L 109.60352 117.26758 L 109.60352 129.94336 L 107.12891 129.94336 L 107.12891 112.44336 z M 143.69922 112.44336 L 146.44922 112.44336 L 146.44922 125.94336 C 146.44922 127.19336 147 127.64258 147.875 127.64258 C 148.75 127.64258 149.29883 127.19336 149.29883 125.94336 L 149.29883 112.44336 L 151.89844 112.44336 L 151.89844 125.76758 C 151.89844 128.56758 150.49883 130.16797 147.79883 130.16797 C 145.09883 130.16797 143.69922 128.56758 143.69922 125.76758 L 143.69922 112.44336 z M 153.78516 112.44336 L 157.93555 112.44336 C 160.78555 112.44336 162.00977 113.7668 162.00977 116.4668 L 162.00977 117.8418 C 162.00977 119.6418 161.43594 120.79219 160.21094 121.36719 L 160.21094 121.41797 C 161.58594 121.99297 162.03516 123.29219 162.03516 125.11719 L 162.03516 127.81836 C 162.03516 128.66836 162.06094 129.29336 162.33594 129.94336 L 159.53516 129.94336 C 159.38516 129.49336 159.28516 129.21797 159.28516 127.79297 L 159.28516 125.04297 C 159.28516 123.41797 158.73438 122.81836 157.48438 122.81836 L 156.53516 122.81836 L 156.53516 129.94336 L 153.78516 129.94336 L 153.78516 112.44336 z M 173.51172 112.44336 L 181.01172 112.44336 L 181.01172 114.94336 L 176.26172 114.94336 L 176.26172 119.81836 L 180.03711 119.81836 L 180.03711 122.31836 L 176.26172 122.31836 L 176.26172 127.44336 L 181.01172 127.44336 L 181.01172 129.94336 L 173.51172 129.94336 L 173.51172 112.44336 z M 82.587891 114.74219 C 81.712891 114.74219 81.164062 115.2168 81.164062 116.4668 L 81.164062 125.91797 C 81.164062 127.16797 81.712891 127.64258 82.587891 127.64258 C 83.462891 127.64258 84.013672 127.16797 84.013672 125.91797 L 84.013672 116.4668 C 84.013672 115.2168 83.462891 114.74219 82.587891 114.74219 z M 137.86133 114.74219 C 136.98633 114.74219 136.4375 115.2168 136.4375 116.4668 L 136.4375 125.91797 C 136.4375 127.16797 136.98633 127.64258 137.86133 127.64258 C 138.73633 127.64258 139.28711 127.16797 139.28711 125.91797 L 139.28711 116.4668 C 139.28711 115.2168 138.73633 114.74219 137.86133 114.74219 z M 91.300781 114.94336 L 91.300781 120.86719 L 92.601562 120.86719 C 93.476562 120.86719 93.951172 120.4668 93.951172 119.2168 L 93.951172 116.5918 C 93.951172 115.3418 93.476562 114.94336 92.601562 114.94336 L 91.300781 114.94336 z M 156.53516 114.94336 L 156.53516 120.31836 L 157.60938 120.31836 C 158.63438 120.31836 159.25977 119.8668 159.25977 118.4668 L 159.25977 116.74219 C 159.25977 115.49219 158.83438 114.94336 157.85938 114.94336 L 156.53516 114.94336 z M 117.72266 119.94336 L 122.72266 119.94336 L 122.72266 122.44336 L 117.72266 122.44336 L 117.72266 119.94336 z M 120.30664 143.49219 C 123.00664 143.49219 124.40625 145.09258 124.40625 147.89258 L 124.40625 149.5918 L 121.80664 149.5918 L 121.80664 147.7168 C 121.80664 146.4668 121.25586 145.99219 120.38086 145.99219 C 119.50586 145.99219 118.95703 146.4668 118.95703 147.7168 L 118.95703 157.16797 C 118.95703 158.41797 119.50586 158.86719 120.38086 158.86719 C 121.25586 158.86719 121.80664 158.41797 121.80664 157.16797 L 121.80664 154.66797 L 124.40625 154.66797 L 124.40625 156.99219 C 124.40625 159.79219 123.00664 161.39258 120.30664 161.39258 C 117.60664 161.39258 116.20703 159.79219 116.20703 156.99219 L 116.20703 147.89258 C 116.20703 145.09258 117.60664 143.49219 120.30664 143.49219 z M 126.09961 143.69336 L 133.375 143.69336 L 133.375 146.19336 L 128.84961 146.19336 L 128.84961 151.4668 L 132.40039 151.4668 L 132.40039 153.9668 L 128.84961 153.9668 L 128.84961 161.19336 L 126.09961 161.19336 L 126.09961 143.69336 z M 134.69336 143.69336 L 139.04297 143.69336 C 141.79297 143.69336 143.14258 145.21758 143.14258 148.01758 L 143.14258 156.86719 C 143.14258 159.66719 141.79297 161.19336 139.04297 161.19336 L 134.69336 161.19336 L 134.69336 143.69336 z M 137.44336 146.19336 L 137.44336 158.69336 L 138.99414 158.69336 C 139.86914 158.69336 140.39258 158.24219 140.39258 156.99219 L 140.39258 147.89258 C 140.39258 146.64258 139.86914 146.19336 138.99414 146.19336 L 137.44336 146.19336 z M 117.64648 174.74219 C 120.34648 174.74219 121.82227 176.34258 121.82227 179.14258 L 121.82227 188.24219 C 121.82227 191.04219 120.34648 192.64258 117.64648 192.64258 C 114.94648 192.64258 113.47266 191.04219 113.47266 188.24219 L 113.47266 179.14258 C 113.47266 176.34258 114.94648 174.74219 117.64648 174.74219 z M 127.48438 174.74219 C 130.18438 174.74219 131.58398 176.34258 131.58398 179.14258 L 131.58398 180.8418 L 128.98438 180.8418 L 128.98438 178.9668 C 128.98438 177.7168 128.43359 177.24219 127.55859 177.24219 C 126.68359 177.24219 126.13477 177.7168 126.13477 178.9668 L 126.13477 188.41797 C 126.13477 189.66797 126.68359 190.11719 127.55859 190.11719 C 128.43359 190.11719 128.98438 189.66797 128.98438 188.41797 L 128.98438 185.19336 L 127.73438 185.19336 L 127.73438 182.69336 L 131.58398 182.69336 L 131.58398 188.24219 C 131.58398 191.04219 130.18437 192.64258 127.48438 192.64258 C 124.78437 192.64258 123.38477 191.04219 123.38477 188.24219 L 123.38477 179.14258 C 123.38477 176.34258 124.78438 174.74219 127.48438 174.74219 z M 94.214844 174.94336 L 98.265625 174.94336 C 101.01562 174.94336 102.36523 176.46758 102.36523 179.26758 L 102.36523 181.54297 C 102.36523 184.34297 101.01562 185.86719 98.265625 185.86719 L 96.964844 185.86719 L 96.964844 192.44336 L 94.214844 192.44336 L 94.214844 174.94336 z M 103.63867 174.94336 L 107.78906 174.94336 C 110.63906 174.94336 111.86328 176.2668 111.86328 178.9668 L 111.86328 180.3418 C 111.86328 182.1418 111.28945 183.29219 110.06445 183.86719 L 110.06445 183.91797 C 111.43945 184.49297 111.88867 185.79219 111.88867 187.61719 L 111.88867 190.31836 C 111.88867 191.16836 111.91445 191.79336 112.18945 192.44336 L 109.38867 192.44336 C 109.23867 191.99336 109.13867 191.71797 109.13867 190.29297 L 109.13867 187.54297 C 109.13867 185.91797 108.58789 185.31836 107.33789 185.31836 L 106.38867 185.31836 L 106.38867 192.44336 L 103.63867 192.44336 L 103.63867 174.94336 z M 133.375 174.94336 L 137.52539 174.94336 C 140.37539 174.94336 141.59961 176.2668 141.59961 178.9668 L 141.59961 180.3418 C 141.59961 182.1418 141.02578 183.29219 139.80078 183.86719 L 139.80078 183.91797 C 141.17578 184.49297 141.625 185.79219 141.625 187.61719 L 141.625 190.31836 C 141.625 191.16836 141.65078 191.79336 141.92578 192.44336 L 139.125 192.44336 C 138.975 191.99336 138.875 191.71797 138.875 190.29297 L 138.875 187.54297 C 138.875 185.91797 138.32422 185.31836 137.07422 185.31836 L 136.125 185.31836 L 136.125 192.44336 L 133.375 192.44336 L 133.375 174.94336 z M 145.50781 174.94336 L 149.5332 174.94336 L 152.33398 192.44336 L 149.55859 192.44336 L 149.08398 189.26758 L 145.70898 189.26758 L 145.23438 192.44336 L 142.70898 192.44336 L 145.50781 174.94336 z M 153.56445 174.94336 L 157.39062 174.94336 L 159.39062 187.36719 L 159.43945 187.36719 L 161.28906 174.94336 L 165.11523 174.94336 L 165.11523 192.44336 L 162.51562 192.44336 L 162.51562 179.89258 L 162.46484 179.89258 L 160.61523 192.44336 L 158.01562 192.44336 L 156.01562 180.06836 L 155.96484 180.06836 L 155.96484 192.44336 L 153.56445 192.44336 L 153.56445 174.94336 z M 117.64648 177.24219 C 116.77148 177.24219 116.22266 177.7168 116.22266 178.9668 L 116.22266 188.41797 C 116.22266 189.66797 116.77148 190.14258 117.64648 190.14258 C 118.52148 190.14258 119.07227 189.66797 119.07227 188.41797 L 119.07227 178.9668 C 119.07227 177.7168 118.52148 177.24219 117.64648 177.24219 z M 96.964844 177.44336 L 96.964844 183.36719 L 98.265625 183.36719 C 99.140625 183.36719 99.615234 182.9668 99.615234 181.7168 L 99.615234 179.0918 C 99.615234 177.8418 99.140625 177.44336 98.265625 177.44336 L 96.964844 177.44336 z M 106.38867 177.44336 L 106.38867 182.81836 L 107.46289 182.81836 C 108.48789 182.81836 109.11328 182.3668 109.11328 180.9668 L 109.11328 179.24219 C 109.11328 177.99219 108.68789 177.44336 107.71289 177.44336 L 106.38867 177.44336 z M 136.125 177.44336 L 136.125 182.81836 L 137.19922 182.81836 C 138.22422 182.81836 138.84961 182.3668 138.84961 180.9668 L 138.84961 179.24219 C 138.84961 177.99219 138.42422 177.44336 137.44922 177.44336 L 136.125 177.44336 z M 147.35938 178.04297 L 146.05859 186.89258 L 148.70898 186.89258 L 147.4082 178.04297 L 147.35938 178.04297 z "
       id="circle4173" />
    <path
       style="opacity:1;fill:#7fc199;fill-opacity:1;stroke:none;stroke-width:3;stroke-linejoin:round;stroke-miterlimit:4;stroke-dasharray:none;stroke-dashoffset:0;stroke-opacity:1"
       d="M 470 60 A 90 90 0 0 0 380 150 A 90 90 0 0 0 470 240 A 90 90 0 0 0 560 150 A 90 90 0 0 0 470 60 z M 424 112.6543 C 426.7 112.6543 428.17578 114.25469 428.17578 117.05469 L 428.17578 126.1543 C 428.17578 128.9543 426.7 130.55469 424 130.55469 C 421.3 130.55469 419.82422 128.9543 419.82422 126.1543 L 419.82422 117.05469 C 419.82422 114.25469 421.3 112.6543 424 112.6543 z M 469.69727 112.6543 C 472.37227 112.6543 473.74805 114.25469 473.74805 117.05469 L 473.74805 117.60352 L 471.14648 117.60352 L 471.14648 116.87891 C 471.14648 115.62891 470.64648 115.1543 469.77148 115.1543 C 468.89648 115.1543 468.39648 115.62891 468.39648 116.87891 C 468.39648 118.15391 468.94805 119.10469 470.74805 120.67969 C 473.04805 122.70469 473.77148 124.1543 473.77148 126.1543 C 473.77148 128.9543 472.37187 130.55469 469.67188 130.55469 C 466.97188 130.55469 465.57227 128.9543 465.57227 126.1543 L 465.57227 125.07812 L 468.17188 125.07812 L 468.17188 126.32812 C 468.17188 127.57812 468.72266 128.0293 469.59766 128.0293 C 470.47266 128.0293 471.02148 127.57812 471.02148 126.32812 C 471.02148 125.05312 470.47188 124.1043 468.67188 122.5293 C 466.37188 120.5043 465.64648 119.05469 465.64648 117.05469 C 465.64648 114.25469 467.02227 112.6543 469.69727 112.6543 z M 479.27344 112.6543 C 481.97344 112.6543 483.44922 114.25469 483.44922 117.05469 L 483.44922 126.1543 C 483.44922 128.9543 481.97344 130.55469 479.27344 130.55469 C 476.57344 130.55469 475.09766 128.9543 475.09766 126.1543 L 475.09766 117.05469 C 475.09766 114.25469 476.57344 112.6543 479.27344 112.6543 z M 509.13086 112.6543 C 511.83086 112.6543 513.23047 114.25469 513.23047 117.05469 L 513.23047 118.75391 L 510.63086 118.75391 L 510.63086 116.87891 C 510.63086 115.62891 510.08008 115.1543 509.20508 115.1543 C 508.33008 115.1543 507.7793 115.62891 507.7793 116.87891 L 507.7793 126.32812 C 507.7793 127.57812 508.33008 128.0293 509.20508 128.0293 C 510.08008 128.0293 510.63086 127.57812 510.63086 126.32812 L 510.63086 123.82812 L 513.23047 123.82812 L 513.23047 126.1543 C 513.23047 128.9543 511.83086 130.55469 509.13086 130.55469 C 506.43086 130.55469 505.0293 128.9543 505.0293 126.1543 L 505.0293 117.05469 C 505.0293 114.25469 506.43086 112.6543 509.13086 112.6543 z M 429.96289 112.85352 L 434.01172 112.85352 C 436.76172 112.85352 438.11133 114.37969 438.11133 117.17969 L 438.11133 119.45312 C 438.11133 122.25312 436.76172 123.7793 434.01172 123.7793 L 432.71289 123.7793 L 432.71289 130.35352 L 429.96289 130.35352 L 429.96289 112.85352 z M 439.38672 112.85352 L 446.88672 112.85352 L 446.88672 115.35352 L 442.13672 115.35352 L 442.13672 120.22852 L 445.91016 120.22852 L 445.91016 122.72852 L 442.13672 122.72852 L 442.13672 127.85352 L 446.88672 127.85352 L 446.88672 130.35352 L 439.38672 130.35352 L 439.38672 112.85352 z M 448.54102 112.85352 L 451.99023 112.85352 L 454.76562 123.32812 L 454.81641 123.32812 L 454.81641 112.85352 L 457.26562 112.85352 L 457.26562 130.35352 L 454.44141 130.35352 L 451.06641 117.67969 L 451.01562 117.67969 L 451.01562 130.35352 L 448.54102 130.35352 L 448.54102 112.85352 z M 485.11133 112.85352 L 487.86133 112.85352 L 487.86133 126.35352 C 487.86133 127.60352 488.41016 128.05469 489.28516 128.05469 C 490.16016 128.05469 490.71094 127.60352 490.71094 126.35352 L 490.71094 112.85352 L 493.31055 112.85352 L 493.31055 126.17969 C 493.31055 128.97969 491.91094 130.57812 489.21094 130.57812 C 486.51094 130.57812 485.11133 128.97969 485.11133 126.17969 L 485.11133 112.85352 z M 495.19727 112.85352 L 499.3457 112.85352 C 502.1957 112.85352 503.42188 114.17891 503.42188 116.87891 L 503.42188 118.25391 C 503.42188 120.05391 502.84609 121.2043 501.62109 121.7793 L 501.62109 121.82812 C 502.99609 122.40312 503.44727 123.7043 503.44727 125.5293 L 503.44727 128.22852 C 503.44727 129.07852 503.47109 129.70352 503.74609 130.35352 L 500.94727 130.35352 C 500.79727 129.90352 500.69727 129.62812 500.69727 128.20312 L 500.69727 125.45312 C 500.69727 123.82812 500.14648 123.22852 498.89648 123.22852 L 497.94727 123.22852 L 497.94727 130.35352 L 495.19727 130.35352 L 495.19727 112.85352 z M 514.92383 112.85352 L 522.42383 112.85352 L 522.42383 115.35352 L 517.67383 115.35352 L 517.67383 120.22852 L 521.44727 120.22852 L 521.44727 122.72852 L 517.67383 122.72852 L 517.67383 127.85352 L 522.42383 127.85352 L 522.42383 130.35352 L 514.92383 130.35352 L 514.92383 112.85352 z M 424 115.1543 C 423.125 115.1543 422.57422 115.62891 422.57422 116.87891 L 422.57422 126.32812 C 422.57422 127.57812 423.125 128.05469 424 128.05469 C 424.875 128.05469 425.42578 127.57812 425.42578 126.32812 L 425.42578 116.87891 C 425.42578 115.62891 424.875 115.1543 424 115.1543 z M 479.27344 115.1543 C 478.39844 115.1543 477.84766 115.62891 477.84766 116.87891 L 477.84766 126.32812 C 477.84766 127.57812 478.39844 128.05469 479.27344 128.05469 C 480.14844 128.05469 480.69922 127.57812 480.69922 126.32812 L 480.69922 116.87891 C 480.69922 115.62891 480.14844 115.1543 479.27344 115.1543 z M 432.71289 115.35352 L 432.71289 121.2793 L 434.01172 121.2793 C 434.88672 121.2793 435.36133 120.87891 435.36133 119.62891 L 435.36133 117.00391 C 435.36133 115.75391 434.88672 115.35352 434.01172 115.35352 L 432.71289 115.35352 z M 497.94727 115.35352 L 497.94727 120.72852 L 499.02148 120.72852 C 500.04648 120.72852 500.67188 120.27891 500.67188 118.87891 L 500.67188 117.1543 C 500.67188 115.9043 500.24648 115.35352 499.27148 115.35352 L 497.94727 115.35352 z M 459.13477 120.35352 L 464.13477 120.35352 L 464.13477 122.85352 L 459.13477 122.85352 L 459.13477 120.35352 z M 460.18555 144.10352 L 464.01172 144.10352 L 466.01172 156.5293 L 466.06055 156.5293 L 467.91016 144.10352 L 471.73633 144.10352 L 471.73633 161.60352 L 469.13672 161.60352 L 469.13672 149.05469 L 469.08594 149.05469 L 467.23633 161.60352 L 464.63672 161.60352 L 462.63672 149.22852 L 462.58594 149.22852 L 462.58594 161.60352 L 460.18555 161.60352 L 460.18555 144.10352 z M 473.73633 144.10352 L 478.08594 144.10352 C 480.83594 144.10352 482.18555 145.62969 482.18555 148.42969 L 482.18555 157.2793 C 482.18555 160.0793 480.83594 161.60352 478.08594 161.60352 L 473.73633 161.60352 L 473.73633 144.10352 z M 476.48633 146.60352 L 476.48633 159.10352 L 478.03711 159.10352 C 478.91211 159.10352 479.43555 158.6543 479.43555 157.4043 L 479.43555 148.30469 C 479.43555 147.05469 478.91211 146.60352 478.03711 146.60352 L 476.48633 146.60352 z M 459.05859 175.1543 C 461.75859 175.1543 463.23438 176.75469 463.23438 179.55469 L 463.23438 188.6543 C 463.23438 191.4543 461.75859 193.05469 459.05859 193.05469 C 456.35859 193.05469 454.88281 191.4543 454.88281 188.6543 L 454.88281 179.55469 C 454.88281 176.75469 456.35859 175.1543 459.05859 175.1543 z M 468.89648 175.1543 C 471.59648 175.1543 472.99609 176.75469 472.99609 179.55469 L 472.99609 181.25391 L 470.39648 181.25391 L 470.39648 179.37891 C 470.39648 178.12891 469.8457 177.6543 468.9707 177.6543 C 468.0957 177.6543 467.54492 178.12891 467.54492 179.37891 L 467.54492 188.82812 C 467.54492 190.07813 468.0957 190.5293 468.9707 190.5293 C 469.8457 190.5293 470.39648 190.07812 470.39648 188.82812 L 470.39648 185.60352 L 469.14648 185.60352 L 469.14648 183.10352 L 472.99609 183.10352 L 472.99609 188.6543 C 472.99609 191.4543 471.59648 193.05469 468.89648 193.05469 C 466.19648 193.05469 464.79492 191.4543 464.79492 188.6543 L 464.79492 179.55469 C 464.79492 176.75469 466.19648 175.1543 468.89648 175.1543 z M 435.62695 175.35352 L 439.67578 175.35352 C 442.42578 175.35352 443.77539 176.87969 443.77539 179.67969 L 443.77539 181.95312 C 443.77539 184.75312 442.42578 186.2793 439.67578 186.2793 L 438.37695 186.2793 L 438.37695 192.85352 L 435.62695 192.85352 L 435.62695 175.35352 z M 445.05078 175.35352 L 449.19922 175.35352 C 452.04922 175.35352 453.27539 176.67891 453.27539 179.37891 L 453.27539 180.75391 C 453.27539 182.55391 452.69961 183.7043 451.47461 184.2793 L 451.47461 184.32812 C 452.84961 184.90313 453.30078 186.2043 453.30078 188.0293 L 453.30078 190.72852 C 453.30078 191.57852 453.32461 192.20352 453.59961 192.85352 L 450.80078 192.85352 C 450.65078 192.40352 450.55078 192.12812 450.55078 190.70312 L 450.55078 187.95312 C 450.55078 186.32813 450 185.72852 448.75 185.72852 L 447.80078 185.72852 L 447.80078 192.85352 L 445.05078 192.85352 L 445.05078 175.35352 z M 474.78711 175.35352 L 478.93555 175.35352 C 481.78555 175.35352 483.01172 176.67891 483.01172 179.37891 L 483.01172 180.75391 C 483.01172 182.55391 482.43594 183.7043 481.21094 184.2793 L 481.21094 184.32812 C 482.58594 184.90313 483.03711 186.2043 483.03711 188.0293 L 483.03711 190.72852 C 483.03711 191.57852 483.06094 192.20352 483.33594 192.85352 L 480.53711 192.85352 C 480.38711 192.40352 480.28711 192.12812 480.28711 190.70312 L 480.28711 187.95312 C 480.28711 186.32813 479.73633 185.72852 478.48633 185.72852 L 477.53711 185.72852 L 477.53711 192.85352 L 474.78711 192.85352 L 474.78711 175.35352 z M 486.91992 175.35352 L 490.94531 175.35352 L 493.74414 192.85352 L 490.9707 192.85352 L 490.49414 189.67969 L 487.11914 189.67969 L 486.64453 192.85352 L 484.11914 192.85352 L 486.91992 175.35352 z M 494.97656 175.35352 L 498.80078 175.35352 L 500.80078 187.7793 L 500.85156 187.7793 L 502.70117 175.35352 L 506.52539 175.35352 L 506.52539 192.85352 L 503.92578 192.85352 L 503.92578 180.30469 L 503.87695 180.30469 L 502.02539 192.85352 L 499.42578 192.85352 L 497.42578 180.47852 L 497.37695 180.47852 L 497.37695 192.85352 L 494.97656 192.85352 L 494.97656 175.35352 z M 459.05859 177.6543 C 458.18359 177.6543 457.63281 178.12891 457.63281 179.37891 L 457.63281 188.82812 C 457.63281 190.07813 458.18359 190.55469 459.05859 190.55469 C 459.93359 190.55469 460.48438 190.07812 460.48438 188.82812 L 460.48438 179.37891 C 460.48438 178.12891 459.93359 177.6543 459.05859 177.6543 z M 438.37695 177.85352 L 438.37695 183.7793 L 439.67578 183.7793 C 440.55078 183.7793 441.02539 183.37891 441.02539 182.12891 L 441.02539 179.50391 C 441.02539 178.25391 440.55078 177.85352 439.67578 177.85352 L 438.37695 177.85352 z M 447.80078 177.85352 L 447.80078 183.22852 L 448.875 183.22852 C 449.9 183.22852 450.52539 182.77891 450.52539 181.37891 L 450.52539 179.6543 C 450.52539 178.4043 450.1 177.85352 449.125 177.85352 L 447.80078 177.85352 z M 477.53711 177.85352 L 477.53711 183.22852 L 478.61133 183.22852 C 479.63633 183.22852 480.26172 182.77891 480.26172 181.37891 L 480.26172 179.6543 C 480.26172 178.4043 479.83633 177.85352 478.86133 177.85352 L 477.53711 177.85352 z M 488.76953 178.45312 L 487.4707 187.30469 L 490.11914 187.30469 L 488.82031 178.45312 L 488.76953 178.45312 z "
       id="circle4175" />
    <path
       style="opacity:1;fill:#64ad39;fill-opacity:1;stroke:none;stroke-width:3;stroke-linejoin:round;stroke-miterlimit:4;stroke-dasharray:none;stroke-dashoffset:0;stroke-opacity:1"
       d="M 470 360 A 90 90 0 0 0 380 450 A 90 90 0 0 0 470 540 A 90 90 0 0 0 560 450 A 90 90 0 0 0 470 360 z M 451.4707 425.89062 C 454.1707 425.89062 455.64453 427.48906 455.64453 430.28906 L 455.64453 439.39062 C 455.64453 442.19062 454.1707 443.78906 451.4707 443.78906 C 448.7707 443.78906 447.29492 442.19063 447.29492 439.39062 L 447.29492 430.28906 C 447.29492 427.48906 448.7707 425.89062 451.4707 425.89062 z M 437.09961 426.08984 L 439.97461 426.08984 L 442.04883 434.06445 L 442.09961 434.06445 L 444.17383 426.08984 L 446.79883 426.08984 L 443.32422 437.78906 L 443.32422 443.58984 L 440.57422 443.58984 L 440.57422 437.78906 L 437.09961 426.08984 z M 457.30859 426.08984 L 460.05859 426.08984 L 460.05859 439.58984 C 460.05859 440.83984 460.60742 441.28906 461.48242 441.28906 C 462.35742 441.28906 462.9082 440.83984 462.9082 439.58984 L 462.9082 426.08984 L 465.50781 426.08984 L 465.50781 439.41406 C 465.50781 442.21406 464.1082 443.81445 461.4082 443.81445 C 458.7082 443.81445 457.30859 442.21406 457.30859 439.41406 L 457.30859 426.08984 z M 467.39453 426.08984 L 471.54297 426.08984 C 474.39297 426.08984 475.61914 427.41523 475.61914 430.11523 L 475.61914 431.49023 C 475.61914 433.29023 475.04336 434.44063 473.81836 435.01562 L 473.81836 435.06445 C 475.19336 435.63945 475.64453 436.94063 475.64453 438.76562 L 475.64453 441.46484 C 475.64453 442.31484 475.66836 442.93984 475.94336 443.58984 L 473.14453 443.58984 C 472.99453 443.13984 472.89453 442.86445 472.89453 441.43945 L 472.89453 438.68945 C 472.89453 437.06445 472.34375 436.46484 471.09375 436.46484 L 470.14453 436.46484 L 470.14453 443.58984 L 467.39453 443.58984 L 467.39453 426.08984 z M 481.28516 426.08984 L 485.10938 426.08984 L 487.10938 438.51562 L 487.16016 438.51562 L 489.00977 426.08984 L 492.83398 426.08984 L 492.83398 443.58984 L 490.23438 443.58984 L 490.23438 431.03906 L 490.18359 431.03906 L 488.33398 443.58984 L 485.73438 443.58984 L 483.73438 431.21484 L 483.68359 431.21484 L 483.68359 443.58984 L 481.28516 443.58984 L 481.28516 426.08984 z M 494.83594 426.08984 L 499.18555 426.08984 C 501.93555 426.08984 503.28516 427.61406 503.28516 430.41406 L 503.28516 439.26562 C 503.28516 442.06562 501.93555 443.58984 499.18555 443.58984 L 494.83594 443.58984 L 494.83594 426.08984 z M 451.4707 428.39062 C 450.5957 428.39062 450.04492 428.86523 450.04492 430.11523 L 450.04492 439.56445 C 450.04492 440.81445 450.5957 441.28906 451.4707 441.28906 C 452.3457 441.28906 452.89453 440.81445 452.89453 439.56445 L 452.89453 430.11523 C 452.89453 428.86523 452.3457 428.39062 451.4707 428.39062 z M 470.14453 428.58984 L 470.14453 433.96484 L 471.21875 433.96484 C 472.24375 433.96484 472.86914 433.51523 472.86914 432.11523 L 472.86914 430.39062 C 472.86914 429.14062 472.44375 428.58984 471.46875 428.58984 L 470.14453 428.58984 z M 497.58594 428.58984 L 497.58594 441.08984 L 499.13477 441.08984 C 500.00977 441.08984 500.53516 440.64062 500.53516 439.39062 L 500.53516 430.28906 C 500.53516 429.03906 500.00977 428.58984 499.13477 428.58984 L 497.58594 428.58984 z M 458.50195 457.14062 C 461.20195 457.14062 462.67578 458.73906 462.67578 461.53906 L 462.67578 470.64062 C 462.67578 473.44062 461.20195 475.03906 458.50195 475.03906 C 455.80195 475.03906 454.32617 473.44063 454.32617 470.64062 L 454.32617 461.53906 C 454.32617 458.73906 455.80195 457.14062 458.50195 457.14062 z M 468.33984 457.14062 C 471.03984 457.14062 472.43945 458.73906 472.43945 461.53906 L 472.43945 463.24023 L 469.83984 463.24023 L 469.83984 461.36523 C 469.83984 460.11523 469.28906 459.64062 468.41406 459.64062 C 467.53906 459.64062 466.98828 460.11523 466.98828 461.36523 L 466.98828 470.81445 C 466.98828 472.06445 467.53906 472.51562 468.41406 472.51562 C 469.28906 472.51563 469.83984 472.06445 469.83984 470.81445 L 469.83984 467.58984 L 468.58984 467.58984 L 468.58984 465.08984 L 472.43945 465.08984 L 472.43945 470.64062 C 472.43945 473.44062 471.03984 475.03906 468.33984 475.03906 C 465.63984 475.03906 464.23828 473.44063 464.23828 470.64062 L 464.23828 461.53906 C 464.23828 458.73906 465.63984 457.14062 468.33984 457.14062 z M 435.07031 457.33984 L 439.11914 457.33984 C 441.86914 457.33984 443.21875 458.86406 443.21875 461.66406 L 443.21875 463.93945 C 443.21875 466.73945 441.86914 468.26562 439.11914 468.26562 L 437.82031 468.26562 L 437.82031 474.83984 L 435.07031 474.83984 L 435.07031 457.33984 z M 444.49219 457.33984 L 448.64258 457.33984 C 451.49258 457.33984 452.71875 458.66523 452.71875 461.36523 L 452.71875 462.74023 C 452.71875 464.54023 452.14297 465.69063 450.91797 466.26562 L 450.91797 466.31445 C 452.29297 466.88945 452.74219 468.19063 452.74219 470.01562 L 452.74219 472.71484 C 452.74219 473.56484 452.76797 474.18984 453.04297 474.83984 L 450.24219 474.83984 C 450.09219 474.38984 449.99219 474.11445 449.99219 472.68945 L 449.99219 469.93945 C 449.99219 468.31445 449.44336 467.71484 448.19336 467.71484 L 447.24219 467.71484 L 447.24219 474.83984 L 444.49219 474.83984 L 444.49219 457.33984 z M 474.23047 457.33984 L 478.37891 457.33984 C 481.22891 457.33984 482.45508 458.66523 482.45508 461.36523 L 482.45508 462.74023 C 482.45508 464.54023 481.8793 465.69063 480.6543 466.26562 L 480.6543 466.31445 C 482.0293 466.88945 482.48047 468.19063 482.48047 470.01562 L 482.48047 472.71484 C 482.48047 473.56484 482.5043 474.18984 482.7793 474.83984 L 479.98047 474.83984 C 479.83047 474.38984 479.73047 474.11445 479.73047 472.68945 L 479.73047 469.93945 C 479.73047 468.31445 479.17969 467.71484 477.92969 467.71484 L 476.98047 467.71484 L 476.98047 474.83984 L 474.23047 474.83984 L 474.23047 457.33984 z M 486.36328 457.33984 L 490.38867 457.33984 L 493.1875 474.83984 L 490.41406 474.83984 L 489.9375 471.66406 L 486.5625 471.66406 L 486.08789 474.83984 L 483.5625 474.83984 L 486.36328 457.33984 z M 494.41992 457.33984 L 498.24414 457.33984 L 500.24414 469.76562 L 500.29492 469.76562 L 502.14453 457.33984 L 505.96875 457.33984 L 505.96875 474.83984 L 503.36914 474.83984 L 503.36914 462.28906 L 503.32031 462.28906 L 501.46875 474.83984 L 498.86914 474.83984 L 496.86914 462.46484 L 496.82031 462.46484 L 496.82031 474.83984 L 494.41992 474.83984 L 494.41992 457.33984 z M 458.50195 459.64062 C 457.62695 459.64062 457.07617 460.11523 457.07617 461.36523 L 457.07617 470.81445 C 457.07617 472.06445 457.62695 472.53906 458.50195 472.53906 C 459.37695 472.53906 459.92578 472.06445 459.92578 470.81445 L 459.92578 461.36523 C 459.92578 460.11523 459.37695 459.64062 458.50195 459.64062 z M 437.82031 459.83984 L 437.82031 465.76562 L 439.11914 465.76562 C 439.99414 465.76562 440.46875 465.36523 440.46875 464.11523 L 440.46875 461.49023 C 440.46875 460.24023 439.99414 459.83984 439.11914 459.83984 L 437.82031 459.83984 z M 447.24219 459.83984 L 447.24219 465.21484 L 448.31836 465.21484 C 449.34336 465.21484 449.96875 464.76523 449.96875 463.36523 L 449.96875 461.64062 C 449.96875 460.39062 449.54336 459.83984 448.56836 459.83984 L 447.24219 459.83984 z M 476.98047 459.83984 L 476.98047 465.21484 L 478.05469 465.21484 C 479.07969 465.21484 479.70508 464.76523 479.70508 463.36523 L 479.70508 461.64062 C 479.70508 460.39062 479.27969 459.83984 478.30469 459.83984 L 476.98047 459.83984 z M 488.21289 460.43945 L 486.91406 469.28906 L 489.5625 469.28906 L 488.26367 460.43945 L 488.21289 460.43945 z "
       id="path4147" />
  </g>
</svg>
